<svg width="122.87" height="122.88" xmlns="http://www.w3.org/2000/svg">
 <style type="text/css">.st0{fill:#222222;}</style>

 <g>
  <title>background</title>
  <rect fill="none" id="canvas_background" height="514" width="514" y="-1" x="-1"/>
 </g>
 <g>
  <title>Layer 1</title>
  <ellipse ry="61.468356" rx="61.107597" id="svg_4" cy="61.446332" cx="61.561579" fill-opacity="null" stroke-opacity="null" stroke-width="0.001" stroke="#FF0000" fill="#ffffff"/>
  <g id="svg_1">
   <path id="svg_2" d="m56.599998,0.03c-0.289997,0.03 -1.209999,0.14 -2.039997,0.21c-11.82,1.24 -23.450001,6.24 -32.940001,14.19c-1.75,1.45 -5.740001,5.440001 -7.190001,7.190001c-7.86,9.389999 -12.45,19.92 -14.15,32.389997c-0.38,2.77 -0.38,12.100002 0,14.869999c1.69,12.470001 6.29,23 14.14,32.380005c1.45,1.75 5.440001,5.739998 7.190001,7.189995c9.389999,7.860001 19.93,12.450005 32.389999,14.150002c2.77,0.380005 12.099998,0.380005 14.870003,0c12.469994,-1.689995 23,-6.290001 32.379997,-14.139999c1.75,-1.449997 5.739998,-5.440002 7.190002,-7.190002c7.860001,-9.379997 12.449997,-19.919998 14.139999,-32.379997c0.379997,-2.769997 0.379997,-12.099998 0,-14.869999c-1.690002,-12.470001 -6.290001,-23 -14.139999,-32.380001c-1.450005,-1.75 -5.440002,-5.74 -7.190002,-7.19c-9.349998,-7.85 -19.989998,-12.5 -32.290001,-14.15c-1.330002,-0.18 -3.260002,-0.26 -6.849998,-0.29c-2.73,-0.02 -5.220001,-0.01 -5.510002,0.02l0,0zm0.760002,6.53c0,1.77 0.119999,5.61 0.290001,9.25c0.09,1.78 0.199997,4.339999 0.239998,5.669999c0.170002,4.710001 0.670002,17.09 0.740002,18.189999l0.079998,1.100002l-0.68,-0.080002c-0.379997,-0.029999 -0.73,-0.119999 -0.789997,-0.169998c-0.050003,-0.060001 -0.150002,-1.100002 -0.210003,-2.330002c-0.27,-5.379997 -1.16,-26.249999 -1.25,-29.299998l-0.09,-3.35l0.420002,-0.06c0.23,-0.03 0.599998,-0.08 0.849998,-0.09l0.41,-0.01l-0.009998,1.18l0,0l0,0zm14.459999,-0.36c0.019997,0.02 0.059998,4.58 0.110001,10.14c0.059998,5.58 0.139999,10.58 0.18,11.119999c0.050003,0.560001 0.029999,1.040001 -0.050003,1.070002c-0.059998,0.049999 -0.439995,0.049999 -0.82,0l-0.699997,-0.060001l-0.110001,-4.4c-0.059998,-2.43 -0.139999,-5.119999 -0.169998,-6c-0.120003,-2.67 -0.230003,-11.76 -0.139999,-11.98c0.079994,-0.16 0.25,-0.18 0.879997,-0.07c0.440002,0.09 0.800003,0.16 0.82,0.18l0,0l0,0zm-34.950001,5.06c0.09,0.139999 0.799999,8.459999 1.68,19.360001c0.290001,3.699999 0.57,7.089998 0.619999,7.51c0.080002,0.77 0.060001,0.799999 -0.419998,1.099998c-0.27,0.170002 -0.540001,0.299999 -0.599998,0.299999c-0.050003,0 -0.140003,-0.389999 -0.18,-0.879997c-0.210003,-1.960003 -1.030003,-11.450001 -1.600002,-18.310001c-0.329998,-4.030001 -0.629997,-7.650001 -0.68,-8.04c-0.079998,-0.67 -0.059998,-0.73 0.330002,-0.940001c0.470001,-0.25 0.739998,-0.299999 0.849998,-0.099999l0,0l0,0zm41.600002,3.04c0.419998,0.15 0.470001,0.23 0.559998,1.09c0.150002,1.509999 0.110001,8.73 -0.059998,8.73c-0.440002,0 -1.349998,-0.51 -1.419998,-0.800001c-0.050003,-0.18 -0.090004,-2.33 -0.090004,-4.76c-0.010002,-4.91 -0.07,-4.629999 1.010002,-4.259999l0,0zm-27.91,0.71c0,0.41 0.109997,2.66 0.23,5.030001c0.119999,2.369999 0.259998,5.379999 0.32,6.679998c0.110001,2.630001 0.139999,2.540001 -0.880001,2.6c-0.5,0.02 -0.5,0.02 -0.529999,-0.74c-0.030003,-0.42 -0.110001,-1.74 -0.200001,-2.950001c-0.080002,-1.209999 -0.259998,-3.82 -0.380001,-5.82c-0.119999,-1.99 -0.27,-3.969999 -0.32,-4.4c-0.09,-0.76 -0.079998,-0.79 0.330002,-0.94c0.239998,-0.09 0.669998,-0.17 0.939999,-0.17c0.490002,0 0.490002,0 0.490002,0.71l0,0l0,0zm41.91,2.07l0.510002,0.210001l0.109993,2.019999c0.050003,1.1 0.080002,3.49 0.050003,5.290001l-0.050003,3.289999l-0.629997,-0.32l-0.629997,-0.299999l-0.050003,-5.02c-0.029999,-2.77 -0.019997,-5.110001 0.020004,-5.209999c0.049995,-0.220001 0.049995,-0.220001 0.669998,0.039999l0,0l0,0zm-27.590004,1.98c0.090004,0.09 0.300003,7.42 0.32,11.140001l0.020004,2.239998l-0.709999,-0.109997c-0.410004,-0.050003 -0.740002,-0.09 -0.760002,-0.110001c-0.049999,-0.030003 -0.5,-11.230001 -0.5,-12.320002l0,-1.119999l0.769997,0.09c0.440002,0.07 0.82,0.139999 0.860001,0.189999l0,0l0,0zm34.800003,1.07c0.18,0.210001 0.209999,3.52 0.260002,21.770002c0.049995,20.959999 0.049995,21.5 -0.230003,21.5c-0.169998,0 -0.389999,-0.09 -0.529999,-0.200001c-0.230003,-0.170002 -0.260002,-1.990002 -0.330002,-19.900002c-0.059998,-10.849998 -0.139999,-20.699999 -0.18,-21.9l-0.089996,-2.18l0.439995,0.320002c0.25,0.199999 0.540001,0.449999 0.660004,0.589998l0,0l0,0zm-13.550003,3.1c0.080002,0.060001 0.150002,0.92 0.170006,1.9c0.079994,3.34 0.089996,23.809999 0.019997,23.879999c-0.029999,0.030003 -0.300003,-0.049999 -0.599998,-0.169998l-0.540001,-0.23l0,-25.700001l0.400002,0.09c0.229996,0.059999 0.470001,0.15 0.549995,0.23l0,0l0,0zm-41.709999,0.84c0.050003,0.41 0.120003,1.33 0.170002,2.09c0.049999,0.74 0.150002,2.43 0.240002,3.75c0.179996,2.66 0.149998,2.830002 -0.710003,2.830002c-0.450001,0 -0.509998,-0.050003 -0.57,-0.5c-0.149998,-0.890001 -0.68,-8.330002 -0.599998,-8.450001c0.079998,-0.110001 0.860001,-0.380001 1.219997,-0.410002c0.09,-0.019999 0.210003,0.300001 0.25,0.690001l0,0zm-24.989998,3.860001c0.17,1.6 0.5,4.959999 0.74,7.450001c0.26,2.489998 0.469999,4.610001 0.469999,4.700001c0,0.179996 -1.16,0.759998 -1.279999,0.629997c-0.08,-0.079998 -1.59,-13.449999 -1.59,-14.049999c0,-0.360001 1.16,-1.889999 1.309999,-1.719999c0.049999,0.019999 0.200001,1.369999 0.35,2.99l0,0zm59.25,1.58l0.440002,0.26l0.019997,3.259998c0.010002,1.780003 0.050003,3.780003 0.050003,4.43c0.029999,1.360001 -0.139999,1.59 -0.950005,1.299999l-0.470001,-0.169998l0,-1.299999c0,-0.73 -0.049995,-2.830002 -0.109993,-4.68l-0.090004,-3.35l0.349998,0c0.169998,0 0.520004,0.119999 0.760002,0.25l0,0l0,0zm-52.620001,5.870001c0.27,2.899998 0.710001,7.799999 1,10.879997l0.51,5.59l-0.59,0.59l-0.57,0.59l-0.110001,-1.189999c-0.059999,-0.670002 -0.359999,-3.75 -0.679998,-6.860001c-0.320002,-3.110001 -0.77,-7.630001 -1,-10.029999l-0.42,-4.35l0.59,-0.540001c0.529999,-0.5 0.589998,-0.51 0.699999,-0.24c0.059999,0.130001 0.32,2.639999 0.57,5.560001l0,0l0,0zm-11.32,1.82c0.33,2.98 1.21,10.889999 1.960001,17.59c0.759998,6.689999 1.469999,13.150002 1.599998,14.360001c0.120001,1.209999 0.33,3.040001 0.450001,4.080002c0.209999,1.769997 0.209999,1.889999 -0.030001,2.07c-0.359999,0.269997 -0.51,0.239998 -0.51,-0.080002c0,-0.139999 -0.139999,-1.279999 -0.299999,-2.520004c-0.27,-2.07 -0.73,-5.579994 -1.74,-13.449997c-0.21,-1.59 -0.62,-4.740002 -0.91,-7.029999c-0.3,-2.280003 -0.74,-5.68 -0.98,-7.560001c-0.24,-1.869999 -0.65,-5.079998 -0.91,-7.150002c-0.27,-2.049999 -0.44,-3.879997 -0.39,-4.079998c0.110001,-0.41 1,-1.83 1.09,-1.74c0.04,0.059999 0.34,2.519999 0.67,5.51l0,0l0,0zm-4.62,6.52c0.23,1.809998 0.650001,5.119999 0.940001,7.369999c0.29,2.240002 0.65,5.029999 0.82,6.200001l0.29,2.119999l-0.32,0.27c-0.18,0.150002 -0.360001,0.209999 -0.42,0.150002c-0.06,-0.060001 -0.18,-0.670002 -0.27,-1.330002c-0.09,-0.669998 -0.65,-4.549999 -1.25,-8.610001l-1.07,-7.399998l0.349999,-1.030003c0.18,-0.559998 0.38,-1.009998 0.42,-1.009998c0.04,-0.010002 0.27,1.469997 0.51,3.27l0,0l0,0zm82.960002,-1.98c0.209999,0.209999 0.239998,1.149998 0.239998,8.079998l0,7.84l-0.419998,0c-0.919998,0 -0.910004,0.23 -0.970001,-8.360001l-0.050003,-7.809998l0.480003,0c0.269997,0.009998 0.599998,0.109997 0.720001,0.25l0,0zm-33.080002,2.699997c3.41,0.510002 6.389999,1.470001 9.339996,2.98c1.900002,0.980003 2.810005,1.660004 4.93,3.690002c3.140007,3.009998 5.080002,5.639999 6.890007,9.349998c2.639999,5.410004 3.669998,10.200005 4.969994,23.040001c0.590004,5.760002 1.360001,16.199997 1.530006,20.480003c0.049995,1.239998 0.149994,3.279999 0.239998,4.529999c0.169998,2.659996 0.360001,2.299995 -1.980003,3.43c-3.25,1.57 -6.379997,2.659996 -10.5,3.669998c-5.049995,1.239998 -8.309998,1.629997 -13.299999,1.650002l-3.629997,0.009995l0.029999,-1.739998c0,-0.949997 0.09,-3.169998 0.18,-4.909996c0.450001,-8.420006 0.360001,-19.040001 -0.23,-24.93c-0.330002,-3.380005 -0.98,-7.490005 -1.350002,-8.400002c-0.079998,-0.200005 0.27,-0.360001 1.77,-0.879997c2.740002,-0.950005 5.110001,-2.150002 5.470001,-2.730003c0.650002,-1.120003 -0.510002,-2.720001 -1.990002,-2.720001c-0.259998,0 -1.029999,0.270004 -1.739998,0.590004c-3.389999,1.559998 -10.170002,3.389999 -14.080002,3.789993c-2.700001,0.290001 -6.91,0.120003 -9.82,-0.409996c-1.59,-0.290001 -4.43,-1.360001 -6.799999,-2.580002c-2.73,-1.419998 -4.41,-3.309998 -4.91,-5.549995c-0.27,-1.210007 -0.200001,-3.630005 0.15,-4.990002c0.379999,-1.5 1.440001,-3.670002 2.4,-4.940002c4.309999,-5.669998 13.189999,-10.579998 22.299999,-12.299999c2.91,-0.540001 7.02,-0.599998 10.130001,-0.130001l0,0l0,0zm46.620003,0.470001c0.540001,0.23 0.599998,0.290001 0.599998,0.799999c0.029999,4.130001 -0.059998,13.549999 -0.139999,13.950001c-0.020004,0.139999 -0.800003,0.150002 -1.130005,0.029999c-0.209999,-0.079998 -0.239998,-0.889999 -0.239998,-7.559998c0,-4.77 0.059998,-7.460003 0.150002,-7.460003c0.080002,0 0.43,0.100002 0.760002,0.240002l0,0zm6.599998,8.299999l0.540001,0.23l-0.110001,12.509998c-0.120003,15.940002 -0.139999,16.410004 -0.709999,17.790001c-0.940002,2.25 -0.889999,2.700005 -0.800003,-7.18c0.029999,-4.939995 0.110001,-9.939995 0.139999,-11.110001c0.029999,-1.159996 0.059998,-4.439999 0.080002,-7.299995c0,-3.450001 0.050003,-5.170002 0.150002,-5.170002c0.089996,0 0.409996,0.110001 0.709999,0.23l0,0zm-90.880001,3.760002c0.09,1.219997 0.059999,1.349998 -0.380001,2.309998l-0.48,1.030003l-0.18,-1.510002c-0.289999,-2.419998 -0.289999,-2.52 0.290001,-2.889999c0.26,-0.18 0.530001,-0.299999 0.57,-0.27c0.049999,0.029999 0.139999,0.630001 0.18,1.330002l0,0zm-9.33,9.110001c0.139999,1.239998 1.19,9.459999 1.74,13.489998c0.82,6.239998 0.88,7.129997 0.51,6.75c-0.05,-0.050003 -0.39,-2.150002 -0.76,-4.669998c-2.36,-16.290001 -2.34,-16.18 -2.15,-16.300003c0.41,-0.269997 0.549999,-0.119995 0.66,0.730003l0,0l0,0zm10.879999,6.919998c0.09,0.379997 0.530001,4.470001 0.530001,4.970001c0,0.419998 -0.540001,0.82 -0.790001,0.57c-0.08,-0.080002 -0.269999,-1.360001 -0.42,-2.840004c-0.169998,-1.5 -0.33,-3.049995 -0.379999,-3.459999l-0.09,-0.759995l0.530001,0.599998c0.299999,0.349998 0.57,0.759995 0.619999,0.919998l0,0l0,0zm12.190002,5.699997c0.169998,0.150002 0.269997,0.760002 0.41,2.389999c0.23,2.950005 0.259998,2.720001 -0.360001,2.720001c-0.630001,0 -0.620003,0.050003 -0.830002,-2.610001c-0.209999,-2.699997 -0.209999,-2.669998 0.200001,-2.669998c0.189999,-0.010002 0.439999,0.080002 0.580002,0.169998l0,0zm11.969997,0.230003c0.030003,0.150002 0.110001,1.059998 0.170002,2.010002c0.049999,0.949997 0.18,3.099998 0.299999,4.759995c0.419998,6.100006 0.439999,6.880005 0.18,6.880005c-0.290001,0 -0.32,-0.230003 -0.650002,-4.529999c-0.119999,-1.780006 -0.349998,-4.590004 -0.5,-6.240005c-0.139999,-1.649994 -0.23,-3.019997 -0.18,-3.049995c0.170002,-0.200005 0.600002,-0.060005 0.68,0.169998l0,0l0,0zm-28.41,2.900002c0.09,0.139999 0.67,4.970001 1.370001,11.57c0.209999,1.989998 0.42,3.909996 0.469999,4.279999l0.08,0.650002l-0.379999,-0.240005c-0.290001,-0.199997 -0.389999,-0.389999 -0.389999,-0.739998c0,-0.949997 -0.650002,-7.220001 -1.150002,-11.059998c-0.289999,-2.18 -0.51,-4.090004 -0.51,-4.279999c0,-0.32 0.360001,-0.440002 0.51,-0.18l0,0zm87.209999,6.309998l-0.110001,6.32l-0.379997,0.559998c-0.860001,1.270004 -0.82,1.510002 -0.770004,-5.559998l0.030006,-6.479996l0.559998,-0.57c0.300003,-0.300003 0.599998,-0.560005 0.669998,-0.560005c0.040001,-0.010002 0.040001,2.830002 0,6.290001l0,0l0,0zm-13.979996,10.020004c0.079994,8.779999 0.059998,9.459999 -0.18,9.729996c-0.150002,0.169998 -0.290001,0.270004 -0.330002,0.230003c-0.110001,-0.120003 -0.260002,-19.270004 -0.139999,-19.370003c0.059998,-0.059998 0.209999,-0.089996 0.349998,-0.080002c0.190002,0.050003 0.239998,1.120003 0.300003,9.490005l0,0l0,0zm-49.350002,-6.010002c0.110001,0.939995 0.48,5.419998 0.630001,7.540001c0.09,1.419998 0.09,1.470001 -0.240002,1.57c-0.18,0.059998 -0.389999,0.049995 -0.450001,-0.029999c-0.110001,-0.110001 -0.439999,-3.460007 -0.849998,-8.630005l-0.110001,-1.239998l0.470001,0c0.439999,0 0.469997,0.029999 0.549999,0.790001l0,0zm-11.880001,5.290001c0.110001,0.110001 0.18,0.479996 0.18,0.860001c0,0.389999 0.18,2.43 0.380001,4.549995c0.57,5.790001 0.619999,6.57 0.360001,6.419998c-0.390003,-0.229996 -0.740002,-0.57 -0.670002,-0.669998c0.030001,-0.059998 -0.029999,-0.82 -0.15,-1.68c-0.110001,-0.879997 -0.24,-2.299995 -0.299999,-3.169998c-0.060001,-0.879997 -0.200001,-2.480003 -0.32,-3.550003c-0.290001,-2.639999 -0.27,-2.949997 0.059999,-2.949997c0.16,0 0.35,0.080002 0.459999,0.190002l0,0l0,0zm7.150002,10.169998c0.049999,0.330002 0.139999,1.57 0.200001,2.75c0.109997,2.269997 0.059998,2.43 -0.560001,1.959999c-0.18,-0.139999 -0.299999,-0.709999 -0.48,-2.43c-0.32,-3.110001 -0.330002,-2.989998 0.259998,-2.93c0.420002,0.040001 0.490002,0.099998 0.580002,0.650002l0,0l0,0z" class="st0"/>
   <path id="svg_3" d="m33.389999,51.68c-1.57,0.68 -1.689999,2.810001 -0.209999,3.57c1.07,0.540001 2.16,0.290001 2.720001,-0.650002c1.059998,-1.73 -0.670002,-3.719997 -2.510002,-2.919998l0,0l0,0zm10.25,1.450001c-1.450001,0.889999 -1.450001,3.039997 0,3.93c1.440002,0.859997 3.290001,-0.27 3.290001,-1.990002c0,-1.669998 -1.900002,-2.779999 -3.290001,-1.939999l0,0z" class="st0"/>
  </g>
 </g>
</svg>